<svg id="Слой_1" data-name="Слой 1" xmlns="http://www.w3.org/2000/svg" viewBox="0 0 740.16 128.66"><defs><style>.cls-1{fill:#fff;}</style></defs><title>ss-logo-text- white</title><g id="Page-1"><g id="Group"><g id="ss-logo-blue"><path class="cls-1" d="M74.61,60.62c.47,1.05.85,2,1.22,3.11L57.68,70.81c-.16-.4-.34-.84-.55-1.3a26.89,26.89,0,0,0-2.91-5C50.8,59.85,46.28,57,40.56,57c-7.24,0-12.77,5-12.77,11.83,0,8.06,5,13.32,19.06,21.77,18.21,11.08,27.58,22.69,27.58,37.81,0,20.36-14.85,33.34-36.25,33.34-13.35,0-23.39-5.5-30.64-14.68A47.3,47.3,0,0,1,1.45,137c-.54-1.2-1-2.32-1.32-3.33,0-.13-.09-.26-.13-.38L18.07,126c.24.58.52,1.22.84,1.91a40.56,40.56,0,0,0,3.66,6.3c4.16,5.82,9.27,9.35,15.4,9.35,8.42,0,14.17-5.59,14.17-13.67,0-8.67-5-13.68-21-23.39C14.58,96.34,5.5,84.36,5.5,70.28,5.5,52.09,20.33,39,40,39c12.91,0,22.41,4.8,29.08,12.8A38.62,38.62,0,0,1,74.61,60.62Zm38.92,99.29H91.77V72h21.76ZM102.81,60.16a13.08,13.08,0,1,1,13-13.08A13.06,13.06,0,0,1,102.81,60.16Zm51.64,45.91v54.25H133.77V72.41H152l1,12.26,1.59-2.42C159.47,74.94,167.12,71,176.5,71c10.37,0,18.33,4.86,22.64,13.84l.87,1.83.92-1.81C205.44,76,213.71,71,224,71c15.9,0,25.45,11,25.45,30.18v59.14H228.79V106.61c0-11.45-4.41-17.25-12.88-17.25-8.72,0-13.95,6.08-13.95,17.25v53.71H181.28V106.61c0-11.45-4.41-17.25-12.88-17.25C159.63,89.36,154.45,95.11,154.45,106.07Zm131.93,53.25h-18.6V40h21.76V80.76l1.77-2.13c4.6-5.54,11.47-8.49,20-8.49,19.53,0,30.09,11.31,30.09,32.23v26.46c0,20.81-11.17,32.66-30.63,32.66-9.75,0-17.19-3.34-21.86-9.92l-1.56-2.2Zm3.15-53.48V126c0,10.41,5.84,16.93,15,16.93s15-6.52,15-16.93V105.84c0-10.41-5.84-16.93-15-16.93S289.53,95.43,289.53,105.84Zm90,54.07H357.77V72h21.76Zm-9.72-99.75a13.08,13.08,0,1,1,13-13.08A13.06,13.06,0,0,1,369.81,60.16Zm50.44,25.69c4.88-9.31,13.48-14.35,25.11-14.82v22h-8.18c-11,0-17.73,7.28-17.73,20.5v46.66H398.77V72.3h18.59l1.28,16.63ZM528.83,63.73l-18.15,7.08c-.16-.4-.34-.84-.55-1.3a26.89,26.89,0,0,0-2.91-5C503.8,59.85,499.28,57,493.56,57c-7.24,0-12.77,5-12.77,11.83,0,8.06,5,13.32,19.06,21.77,18.21,11.08,27.58,22.69,27.58,37.81,0,20.36-14.85,33.34-36.25,33.34-13.35,0-23.39-5.5-30.64-14.68A47.3,47.3,0,0,1,454.45,137c-.54-1.2-1-2.32-1.32-3.33-.05-.13-.09-.26-.13-.38L471.07,126c.24.58.52,1.22.84,1.91a40.56,40.56,0,0,0,3.66,6.3c4.16,5.82,9.27,9.35,15.4,9.35,8.42,0,14.17-5.59,14.17-13.67,0-8.67-5-13.68-21-23.39C467.58,96.34,458.5,84.36,458.5,70.28,458.5,52.09,473.33,39,493,39c12.91,0,22.41,4.8,29.08,12.8a38.62,38.62,0,0,1,5.51,8.82C528.08,61.67,528.46,62.64,528.83,63.73Zm9.94,63.52V106.6c0-21.7,14.65-35.6,36.6-35.6,21.78,0,35.9,13.39,35.9,34.91v20.64c0,21.65-14.75,35.61-36.59,35.61S538.77,148.88,538.77,127.25Zm20.68-20.78v20.21c0,10.42,6,16.9,15.57,16.9s15.58-6.48,15.58-16.9V106.47c0-10.41-6.05-16.89-15.58-16.89S559.45,96.06,559.45,106.47Zm93.95-30.1h18.36V91.7H653.4V160H632.73V91.7h-13V76.37h13V64.76c0-16.73,9.38-25.76,26-25.76a71.19,71.19,0,0,1,14,1.23,34,34,0,0,1,3.37.83l.32.1-2.31,15.67c-.54-.11-1.15-.22-1.8-.32A45.72,45.72,0,0,0,665.2,56c-8,0-11.8,3.71-11.8,12.09ZM697.89,52h20.68V76.91h21.59V92.25H718.57v41.08c0,7.52,3.44,10.74,10.71,10.74a46.23,46.23,0,0,0,6.89-.55c.7-.1,1.36-.22,2-.33l1.94,17.58-.35.09c-1,.25-2.14.49-3.52.73a89,89,0,0,1-14.48,1.07c-15.26,0-23.83-8.49-23.83-24.13V92.25H682.77V76.91h15.12Z" transform="translate(0 -34)"/></g></g></g></svg>